<svg width="15" height="15" viewBox="0 0 15 15" fill="none" xmlns="http://www.w3.org/2000/svg">
<g clip-path="url(#clip0_147_6)">
<path d="M7.70685 0.00300019C7.60766 0.000173 7.50988 0.0269223 7.42594 0.0798434C7.342 0.132765 7.27571 0.209464 7.2355 0.300179C7.19529 0.390894 7.18298 0.491523 7.20014 0.589256C7.2173 0.686989 7.26315 0.777407 7.33185 0.849C8.2196 1.77456 8.78743 2.96021 8.95206 4.23208C9.11669 5.50395 8.86946 6.79511 8.24662 7.91619C7.62378 9.03728 6.65812 9.92929 5.49125 10.4614C4.32437 10.9936 3.0177 11.1378 1.76285 10.873C1.66591 10.8529 1.56516 10.862 1.47339 10.8991C1.38162 10.9363 1.30296 10.9999 1.24737 11.0818C1.19178 11.1638 1.16177 11.2604 1.16114 11.3594C1.16052 11.4584 1.1893 11.5554 1.24385 11.638C1.95468 12.7126 2.93034 13.5859 4.07677 14.1738C5.22321 14.7617 6.50177 15.0443 7.78919 14.9945C9.07662 14.9447 10.3295 14.564 11.4271 13.8893C12.5246 13.2145 13.4298 12.2684 14.0555 11.1421C14.6811 10.0158 15.006 8.7473 14.999 7.45893C14.9919 6.17056 14.653 4.90573 14.0151 3.78638C13.3771 2.66703 12.4615 1.7309 11.3566 1.06823C10.2517 0.405555 8.99475 0.0386912 7.70685 0.00300019Z" fill="black"/>
</g>
<defs>
<clipPath id="clip0_147_6">
<rect width="15" height="15" fill="white"/>
</clipPath>
</defs>
</svg>
