<svg width="20" height="20" viewBox="0 0 20 20" fill="none" xmlns="http://www.w3.org/2000/svg">
<path d="M9.99987 17C10.2651 17 10.5194 17.1054 10.707 17.2929C10.8945 17.4804 10.9999 17.7348 10.9999 18V19C10.9999 19.2652 10.8945 19.5196 10.707 19.7071C10.5194 19.8946 10.2651 20 9.99987 20C9.73465 20 9.4803 19.8946 9.29276 19.7071C9.10523 19.5196 8.99987 19.2652 8.99987 19V18C8.99987 17.7348 9.10523 17.4804 9.29276 17.2929C9.4803 17.1054 9.73465 17 9.99987 17ZM16.3639 14.95L17.0709 15.657C17.253 15.8456 17.3538 16.0982 17.3515 16.3604C17.3493 16.6226 17.2441 16.8734 17.0587 17.0588C16.8733 17.2442 16.6225 17.3494 16.3603 17.3517C16.0981 17.354 15.8455 17.2532 15.6569 17.071L14.9499 16.364C14.7677 16.1754 14.6669 15.9228 14.6692 15.6606C14.6715 15.3984 14.7766 15.1476 14.962 14.9622C15.1475 14.7768 15.3983 14.6716 15.6605 14.6693C15.9227 14.667 16.1753 14.7678 16.3639 14.95ZM3.63587 14.95C3.81583 14.7707 4.0573 14.6665 4.31125 14.6588C4.5652 14.651 4.81258 14.7402 5.00315 14.9082C5.19371 15.0763 5.31317 15.3106 5.33727 15.5635C5.36136 15.8164 5.28828 16.069 5.13287 16.27L5.04987 16.364L4.34287 17.071C4.16291 17.2503 3.92143 17.3545 3.66748 17.3622C3.41354 17.37 3.16616 17.2808 2.97559 17.1128C2.78502 16.9447 2.66556 16.7104 2.64147 16.4575C2.61738 16.2046 2.69046 15.952 2.84587 15.751L2.92887 15.657L3.63587 14.95ZM9.99987 4C11.5912 4 13.1173 4.63214 14.2425 5.75736C15.3677 6.88258 15.9999 8.4087 15.9999 10C15.9999 11.5913 15.3677 13.1174 14.2425 14.2426C13.1173 15.3679 11.5912 16 9.99987 16C8.40857 16 6.88245 15.3679 5.75723 14.2426C4.63201 13.1174 3.99987 11.5913 3.99987 10C3.99987 8.4087 4.63201 6.88258 5.75723 5.75736C6.88245 4.63214 8.40857 4 9.99987 4ZM9.99987 6C8.939 6 7.92159 6.42143 7.17144 7.17157C6.4213 7.92172 5.99987 8.93913 5.99987 10C5.99987 11.0609 6.4213 12.0783 7.17144 12.8284C7.92159 13.5786 8.939 14 9.99987 14C11.0607 14 12.0782 13.5786 12.8283 12.8284C13.5784 12.0783 13.9999 11.0609 13.9999 10C13.9999 8.93913 13.5784 7.92172 12.8283 7.17157C12.0782 6.42143 11.0607 6 9.99987 6ZM1.99987 9C2.25475 9.00028 2.4999 9.09788 2.68524 9.27285C2.87057 9.44782 2.9821 9.68695 2.99704 9.94139C3.01198 10.1958 2.92919 10.4464 2.7656 10.6418C2.60201 10.8373 2.36996 10.9629 2.11687 10.993L1.99987 11H0.999869C0.744989 10.9997 0.499837 10.9021 0.3145 10.7272C0.129164 10.5522 0.0176337 10.313 0.0026966 10.0586C-0.0122405 9.80416 0.0705433 9.55362 0.234134 9.35817C0.397724 9.16271 0.629773 9.0371 0.882869 9.007L0.999869 9H1.99987ZM18.9999 9C19.2651 9 19.5194 9.10536 19.707 9.29289C19.8945 9.48043 19.9999 9.73478 19.9999 10C19.9999 10.2652 19.8945 10.5196 19.707 10.7071C19.5194 10.8946 19.2651 11 18.9999 11H17.9999C17.7347 11 17.4803 10.8946 17.2928 10.7071C17.1052 10.5196 16.9999 10.2652 16.9999 10C16.9999 9.73478 17.1052 9.48043 17.2928 9.29289C17.4803 9.10536 17.7347 9 17.9999 9H18.9999ZM2.92887 2.929C3.10106 2.75682 3.33016 2.65339 3.57319 2.63811C3.81621 2.62283 4.05647 2.69675 4.24887 2.846L4.34287 2.929L5.04987 3.636C5.22922 3.81596 5.33334 4.05743 5.3411 4.31138C5.34885 4.56533 5.25965 4.81271 5.09162 5.00328C4.92359 5.19384 4.68932 5.31331 4.43639 5.3374C4.18347 5.36149 3.93086 5.28841 3.72987 5.133L3.63587 5.05L2.92887 4.343C2.7414 4.15547 2.63608 3.90116 2.63608 3.636C2.63608 3.37084 2.7414 3.11653 2.92887 2.929ZM17.0709 2.929C17.2583 3.11653 17.3637 3.37084 17.3637 3.636C17.3637 3.90116 17.2583 4.15547 17.0709 4.343L16.3639 5.05C16.2716 5.14551 16.1613 5.22169 16.0393 5.2741C15.9173 5.32651 15.786 5.3541 15.6533 5.35525C15.5205 5.3564 15.3888 5.3311 15.2659 5.28082C15.143 5.23054 15.0314 5.15629 14.9375 5.0624C14.8436 4.9685 14.7693 4.85685 14.719 4.73395C14.6688 4.61106 14.6435 4.47938 14.6446 4.3466C14.6458 4.21382 14.6734 4.0826 14.7258 3.9606C14.7782 3.83859 14.8544 3.72825 14.9499 3.636L15.6569 2.929C15.8444 2.74153 16.0987 2.63621 16.3639 2.63621C16.629 2.63621 16.8833 2.74153 17.0709 2.929ZM9.99987 0C10.2651 0 10.5194 0.105357 10.707 0.292893C10.8945 0.48043 10.9999 0.734784 10.9999 1V2C10.9999 2.26522 10.8945 2.51957 10.707 2.70711C10.5194 2.89464 10.2651 3 9.99987 3C9.73465 3 9.4803 2.89464 9.29276 2.70711C9.10523 2.51957 8.99987 2.26522 8.99987 2V1C8.99987 0.734784 9.10523 0.48043 9.29276 0.292893C9.4803 0.105357 9.73465 0 9.99987 0Z" fill="#FCFCFC"/>
</svg>
